<mxfile host="app.diagrams.net" modified="2022-02-11T09:15:18.567Z" agent="5.0 (Macintosh; Intel Mac OS X 10_15_7) AppleWebKit/537.36 (KHTML, like Gecko) Chrome/98.0.4758.80 Safari/537.36" etag="ngRCzYmwXx3qDHwr2eD4" version="16.4.7" type="github">
  <diagram id="SMRFMMhf17_Ie4FboQM1" name="Page-1">
    <mxGraphModel dx="1878" dy="722" grid="1" gridSize="10" guides="1" tooltips="1" connect="1" arrows="1" fold="1" page="1" pageScale="1" pageWidth="827" pageHeight="1169" math="0" shadow="0">
      <root>
        <mxCell id="0" />
        <mxCell id="1" parent="0" />
        <mxCell id="7-hZs9UUzoJmamspiq4g-12" value="兌換 Cash Voucher" style="swimlane;fillColor=#dae8fc;strokeColor=#6c8ebf;" parent="1" vertex="1">
          <mxGeometry x="450" y="80" width="260" height="740" as="geometry" />
        </mxCell>
        <mxCell id="7-hZs9UUzoJmamspiq4g-6" value="cash voucher list &lt;br&gt;可以見到剛剛兌換的" style="rounded=1;whiteSpace=wrap;html=1;" parent="7-hZs9UUzoJmamspiq4g-12" vertex="1">
          <mxGeometry x="70" y="130" width="150" height="60" as="geometry" />
        </mxCell>
        <mxCell id="7-hZs9UUzoJmamspiq4g-15" value="" style="edgeStyle=orthogonalEdgeStyle;rounded=0;orthogonalLoop=1;jettySize=auto;html=1;" parent="7-hZs9UUzoJmamspiq4g-12" source="7-hZs9UUzoJmamspiq4g-13" target="7-hZs9UUzoJmamspiq4g-6" edge="1">
          <mxGeometry relative="1" as="geometry" />
        </mxCell>
        <mxCell id="7-hZs9UUzoJmamspiq4g-13" value="redeem button click" style="rounded=1;whiteSpace=wrap;html=1;fillColor=#dae8fc;strokeColor=#6c8ebf;" parent="7-hZs9UUzoJmamspiq4g-12" vertex="1">
          <mxGeometry x="70" y="40" width="150" height="60" as="geometry" />
        </mxCell>
        <mxCell id="7-hZs9UUzoJmamspiq4g-16" value="客人購物商品並且到&lt;br&gt;&amp;nbsp;checkout page" style="rounded=1;whiteSpace=wrap;html=1;" parent="7-hZs9UUzoJmamspiq4g-12" vertex="1">
          <mxGeometry x="70" y="230" width="150" height="60" as="geometry" />
        </mxCell>
        <mxCell id="7-hZs9UUzoJmamspiq4g-17" value="" style="edgeStyle=orthogonalEdgeStyle;rounded=0;orthogonalLoop=1;jettySize=auto;html=1;" parent="7-hZs9UUzoJmamspiq4g-12" source="7-hZs9UUzoJmamspiq4g-6" target="7-hZs9UUzoJmamspiq4g-16" edge="1">
          <mxGeometry relative="1" as="geometry" />
        </mxCell>
        <mxCell id="7-hZs9UUzoJmamspiq4g-23" value="" style="edgeStyle=orthogonalEdgeStyle;rounded=0;orthogonalLoop=1;jettySize=auto;html=1;" parent="7-hZs9UUzoJmamspiq4g-12" source="7-hZs9UUzoJmamspiq4g-18" target="7-hZs9UUzoJmamspiq4g-22" edge="1">
          <mxGeometry relative="1" as="geometry" />
        </mxCell>
        <mxCell id="7-hZs9UUzoJmamspiq4g-18" value="由 Service 判斷&lt;br&gt;會強制使用" style="rounded=1;whiteSpace=wrap;html=1;fillColor=#ffe6cc;strokeColor=#d79b00;" parent="7-hZs9UUzoJmamspiq4g-12" vertex="1">
          <mxGeometry x="70" y="330" width="150" height="60" as="geometry" />
        </mxCell>
        <mxCell id="7-hZs9UUzoJmamspiq4g-19" value="" style="edgeStyle=orthogonalEdgeStyle;rounded=0;orthogonalLoop=1;jettySize=auto;html=1;" parent="7-hZs9UUzoJmamspiq4g-12" source="7-hZs9UUzoJmamspiq4g-16" target="7-hZs9UUzoJmamspiq4g-18" edge="1">
          <mxGeometry relative="1" as="geometry" />
        </mxCell>
        <mxCell id="7-hZs9UUzoJmamspiq4g-25" value="" style="edgeStyle=orthogonalEdgeStyle;rounded=0;orthogonalLoop=1;jettySize=auto;html=1;entryX=0.5;entryY=0;entryDx=0;entryDy=0;" parent="7-hZs9UUzoJmamspiq4g-12" source="7-hZs9UUzoJmamspiq4g-22" target="7-hZs9UUzoJmamspiq4g-26" edge="1">
          <mxGeometry relative="1" as="geometry">
            <mxPoint x="145" y="550" as="targetPoint" />
          </mxGeometry>
        </mxCell>
        <mxCell id="7-hZs9UUzoJmamspiq4g-29" style="edgeStyle=orthogonalEdgeStyle;rounded=0;orthogonalLoop=1;jettySize=auto;html=1;entryX=0;entryY=0.5;entryDx=0;entryDy=0;" parent="7-hZs9UUzoJmamspiq4g-12" source="7-hZs9UUzoJmamspiq4g-22" target="7-hZs9UUzoJmamspiq4g-28" edge="1">
          <mxGeometry relative="1" as="geometry">
            <Array as="points">
              <mxPoint x="40" y="470" />
              <mxPoint x="40" y="670" />
            </Array>
          </mxGeometry>
        </mxCell>
        <mxCell id="7-hZs9UUzoJmamspiq4g-22" value="是否還需要補現金" style="rhombus;whiteSpace=wrap;html=1;fillColor=#f8cecc;strokeColor=#b85450;" parent="7-hZs9UUzoJmamspiq4g-12" vertex="1">
          <mxGeometry x="75" y="430" width="140" height="80" as="geometry" />
        </mxCell>
        <mxCell id="7-hZs9UUzoJmamspiq4g-30" value="" style="edgeStyle=orthogonalEdgeStyle;rounded=0;orthogonalLoop=1;jettySize=auto;html=1;" parent="7-hZs9UUzoJmamspiq4g-12" source="7-hZs9UUzoJmamspiq4g-26" target="7-hZs9UUzoJmamspiq4g-28" edge="1">
          <mxGeometry relative="1" as="geometry" />
        </mxCell>
        <mxCell id="7-hZs9UUzoJmamspiq4g-26" value="redirect to paypal&amp;nbsp;&lt;br&gt;支付剩餘款項" style="rounded=1;whiteSpace=wrap;html=1;" parent="7-hZs9UUzoJmamspiq4g-12" vertex="1">
          <mxGeometry x="70" y="550" width="150" height="60" as="geometry" />
        </mxCell>
        <mxCell id="7-hZs9UUzoJmamspiq4g-27" value="需要" style="text;html=1;strokeColor=none;fillColor=none;align=center;verticalAlign=middle;whiteSpace=wrap;rounded=0;" parent="7-hZs9UUzoJmamspiq4g-12" vertex="1">
          <mxGeometry x="140" y="510" width="60" height="30" as="geometry" />
        </mxCell>
        <mxCell id="7-hZs9UUzoJmamspiq4g-28" value="完成交易&lt;br&gt;訂單成立" style="rounded=1;whiteSpace=wrap;html=1;fillColor=#dae8fc;strokeColor=#6c8ebf;" parent="7-hZs9UUzoJmamspiq4g-12" vertex="1">
          <mxGeometry x="70" y="640" width="150" height="60" as="geometry" />
        </mxCell>
        <mxCell id="7-hZs9UUzoJmamspiq4g-31" value="不需要" style="text;html=1;strokeColor=none;fillColor=none;align=center;verticalAlign=middle;whiteSpace=wrap;rounded=0;" parent="7-hZs9UUzoJmamspiq4g-12" vertex="1">
          <mxGeometry x="20" y="439" width="60" height="30" as="geometry" />
        </mxCell>
        <mxCell id="7-hZs9UUzoJmamspiq4g-39" value="兌換 Product ( 未完成，客人有需要再討論如何使用 )" style="swimlane;fillColor=#dae8fc;strokeColor=#6c8ebf;" parent="1" vertex="1">
          <mxGeometry x="749" y="80" width="531" height="740" as="geometry" />
        </mxCell>
        <mxCell id="7-hZs9UUzoJmamspiq4g-40" value="將指定的 Product &lt;br&gt;添加至購物車" style="rounded=1;whiteSpace=wrap;html=1;" parent="7-hZs9UUzoJmamspiq4g-39" vertex="1">
          <mxGeometry x="241" y="130" width="150" height="60" as="geometry" />
        </mxCell>
        <mxCell id="7-hZs9UUzoJmamspiq4g-41" value="" style="edgeStyle=orthogonalEdgeStyle;rounded=0;orthogonalLoop=1;jettySize=auto;html=1;" parent="7-hZs9UUzoJmamspiq4g-39" source="7-hZs9UUzoJmamspiq4g-42" target="7-hZs9UUzoJmamspiq4g-40" edge="1">
          <mxGeometry relative="1" as="geometry" />
        </mxCell>
        <mxCell id="7-hZs9UUzoJmamspiq4g-42" value="redeem button click" style="rounded=1;whiteSpace=wrap;html=1;fillColor=#dae8fc;strokeColor=#6c8ebf;" parent="7-hZs9UUzoJmamspiq4g-39" vertex="1">
          <mxGeometry x="241" y="40" width="150" height="60" as="geometry" />
        </mxCell>
        <mxCell id="7-hZs9UUzoJmamspiq4g-63" value="" style="edgeStyle=orthogonalEdgeStyle;rounded=0;orthogonalLoop=1;jettySize=auto;html=1;" parent="7-hZs9UUzoJmamspiq4g-39" source="7-hZs9UUzoJmamspiq4g-43" target="7-hZs9UUzoJmamspiq4g-50" edge="1">
          <mxGeometry relative="1" as="geometry" />
        </mxCell>
        <mxCell id="7-hZs9UUzoJmamspiq4g-43" value="客人購物商品並且到&lt;br&gt;&amp;nbsp;checkout page" style="rounded=1;whiteSpace=wrap;html=1;" parent="7-hZs9UUzoJmamspiq4g-39" vertex="1">
          <mxGeometry x="241" y="230" width="150" height="60" as="geometry" />
        </mxCell>
        <mxCell id="7-hZs9UUzoJmamspiq4g-44" value="" style="edgeStyle=orthogonalEdgeStyle;rounded=0;orthogonalLoop=1;jettySize=auto;html=1;" parent="7-hZs9UUzoJmamspiq4g-39" source="7-hZs9UUzoJmamspiq4g-40" target="7-hZs9UUzoJmamspiq4g-43" edge="1">
          <mxGeometry relative="1" as="geometry" />
        </mxCell>
        <mxCell id="7-hZs9UUzoJmamspiq4g-48" value="" style="edgeStyle=orthogonalEdgeStyle;rounded=0;orthogonalLoop=1;jettySize=auto;html=1;entryX=0.5;entryY=0;entryDx=0;entryDy=0;" parent="7-hZs9UUzoJmamspiq4g-39" source="7-hZs9UUzoJmamspiq4g-50" target="7-hZs9UUzoJmamspiq4g-52" edge="1">
          <mxGeometry relative="1" as="geometry">
            <mxPoint x="317" y="450" as="targetPoint" />
          </mxGeometry>
        </mxCell>
        <mxCell id="7-hZs9UUzoJmamspiq4g-49" style="edgeStyle=orthogonalEdgeStyle;rounded=0;orthogonalLoop=1;jettySize=auto;html=1;entryX=0.5;entryY=0;entryDx=0;entryDy=0;" parent="7-hZs9UUzoJmamspiq4g-39" source="7-hZs9UUzoJmamspiq4g-50" target="7-hZs9UUzoJmamspiq4g-64" edge="1">
          <mxGeometry relative="1" as="geometry">
            <Array as="points">
              <mxPoint x="101" y="370" />
            </Array>
            <mxPoint x="111" y="414" as="targetPoint" />
          </mxGeometry>
        </mxCell>
        <mxCell id="7-hZs9UUzoJmamspiq4g-50" value="兌換的商品&lt;br&gt;是否還需要補現金" style="rhombus;whiteSpace=wrap;html=1;fillColor=#f8cecc;strokeColor=#b85450;" parent="7-hZs9UUzoJmamspiq4g-39" vertex="1">
          <mxGeometry x="246" y="330" width="140" height="80" as="geometry" />
        </mxCell>
        <mxCell id="7-hZs9UUzoJmamspiq4g-72" style="edgeStyle=orthogonalEdgeStyle;rounded=0;orthogonalLoop=1;jettySize=auto;html=1;" parent="7-hZs9UUzoJmamspiq4g-39" source="7-hZs9UUzoJmamspiq4g-52" target="7-hZs9UUzoJmamspiq4g-70" edge="1">
          <mxGeometry relative="1" as="geometry" />
        </mxCell>
        <mxCell id="7-hZs9UUzoJmamspiq4g-52" value="產品金額&lt;br&gt;顯示應補的金額" style="rounded=1;whiteSpace=wrap;html=1;" parent="7-hZs9UUzoJmamspiq4g-39" vertex="1">
          <mxGeometry x="261" y="450" width="110" height="60" as="geometry" />
        </mxCell>
        <mxCell id="7-hZs9UUzoJmamspiq4g-53" value="需要" style="text;html=1;strokeColor=none;fillColor=none;align=center;verticalAlign=middle;whiteSpace=wrap;rounded=0;" parent="7-hZs9UUzoJmamspiq4g-39" vertex="1">
          <mxGeometry x="312" y="410" width="60" height="30" as="geometry" />
        </mxCell>
        <mxCell id="7-hZs9UUzoJmamspiq4g-55" value="不需要" style="text;html=1;strokeColor=none;fillColor=none;align=center;verticalAlign=middle;whiteSpace=wrap;rounded=0;" parent="7-hZs9UUzoJmamspiq4g-39" vertex="1">
          <mxGeometry x="101" y="400" width="60" height="30" as="geometry" />
        </mxCell>
        <mxCell id="7-hZs9UUzoJmamspiq4g-56" value="" style="endArrow=none;dashed=1;html=1;dashPattern=1 3;strokeWidth=2;rounded=0;entryX=0;entryY=0;entryDx=0;entryDy=0;exitX=1;exitY=0.5;exitDx=0;exitDy=0;exitPerimeter=0;" parent="7-hZs9UUzoJmamspiq4g-39" source="7-hZs9UUzoJmamspiq4g-57" target="7-hZs9UUzoJmamspiq4g-40" edge="1">
          <mxGeometry width="50" height="50" relative="1" as="geometry">
            <mxPoint x="111" y="130" as="sourcePoint" />
            <mxPoint x="161" y="140" as="targetPoint" />
          </mxGeometry>
        </mxCell>
        <mxCell id="7-hZs9UUzoJmamspiq4g-57" value="請確認是&lt;br&gt;product &lt;br&gt;還是&lt;br&gt;product item" style="shape=card;whiteSpace=wrap;html=1;fillColor=#f5f5f5;fontColor=#333333;strokeColor=#666666;" parent="7-hZs9UUzoJmamspiq4g-39" vertex="1">
          <mxGeometry x="121" y="60" width="80" height="110" as="geometry" />
        </mxCell>
        <mxCell id="7-hZs9UUzoJmamspiq4g-71" value="" style="edgeStyle=orthogonalEdgeStyle;rounded=0;orthogonalLoop=1;jettySize=auto;html=1;" parent="7-hZs9UUzoJmamspiq4g-39" source="7-hZs9UUzoJmamspiq4g-64" target="7-hZs9UUzoJmamspiq4g-66" edge="1">
          <mxGeometry relative="1" as="geometry" />
        </mxCell>
        <mxCell id="7-hZs9UUzoJmamspiq4g-64" value="產品金額&lt;br&gt;顯示 $0" style="rounded=1;whiteSpace=wrap;html=1;" parent="7-hZs9UUzoJmamspiq4g-39" vertex="1">
          <mxGeometry x="51" y="450" width="100" height="60" as="geometry" />
        </mxCell>
        <mxCell id="7-hZs9UUzoJmamspiq4g-76" value="" style="edgeStyle=orthogonalEdgeStyle;rounded=0;orthogonalLoop=1;jettySize=auto;html=1;" parent="7-hZs9UUzoJmamspiq4g-39" source="7-hZs9UUzoJmamspiq4g-66" target="7-hZs9UUzoJmamspiq4g-70" edge="1">
          <mxGeometry relative="1" as="geometry" />
        </mxCell>
        <mxCell id="7-hZs9UUzoJmamspiq4g-80" style="edgeStyle=orthogonalEdgeStyle;rounded=0;orthogonalLoop=1;jettySize=auto;html=1;entryX=0;entryY=0.5;entryDx=0;entryDy=0;exitX=0.5;exitY=1;exitDx=0;exitDy=0;" parent="7-hZs9UUzoJmamspiq4g-39" source="7-hZs9UUzoJmamspiq4g-66" target="7-hZs9UUzoJmamspiq4g-78" edge="1">
          <mxGeometry relative="1" as="geometry" />
        </mxCell>
        <mxCell id="7-hZs9UUzoJmamspiq4g-66" value="購物車內商品&lt;br&gt;不再需要進行支付" style="rhombus;whiteSpace=wrap;html=1;fillColor=#f8cecc;strokeColor=#b85450;" parent="7-hZs9UUzoJmamspiq4g-39" vertex="1">
          <mxGeometry x="31" y="550" width="140" height="80" as="geometry" />
        </mxCell>
        <mxCell id="7-hZs9UUzoJmamspiq4g-79" value="" style="edgeStyle=orthogonalEdgeStyle;rounded=0;orthogonalLoop=1;jettySize=auto;html=1;" parent="7-hZs9UUzoJmamspiq4g-39" source="7-hZs9UUzoJmamspiq4g-70" target="7-hZs9UUzoJmamspiq4g-78" edge="1">
          <mxGeometry relative="1" as="geometry" />
        </mxCell>
        <mxCell id="7-hZs9UUzoJmamspiq4g-70" value="redirect to paypal&amp;nbsp;&lt;br&gt;支付剩餘款項" style="rounded=1;whiteSpace=wrap;html=1;" parent="7-hZs9UUzoJmamspiq4g-39" vertex="1">
          <mxGeometry x="241" y="560" width="150" height="60" as="geometry" />
        </mxCell>
        <mxCell id="7-hZs9UUzoJmamspiq4g-77" value="仍有商品需要支付款項" style="text;html=1;strokeColor=none;fillColor=none;align=center;verticalAlign=middle;whiteSpace=wrap;rounded=0;" parent="7-hZs9UUzoJmamspiq4g-39" vertex="1">
          <mxGeometry x="171" y="530" width="60" height="60" as="geometry" />
        </mxCell>
        <mxCell id="7-hZs9UUzoJmamspiq4g-78" value="完成交易&lt;br&gt;訂單成立" style="rounded=1;whiteSpace=wrap;html=1;fillColor=#dae8fc;strokeColor=#6c8ebf;" parent="7-hZs9UUzoJmamspiq4g-39" vertex="1">
          <mxGeometry x="241" y="650" width="150" height="60" as="geometry" />
        </mxCell>
        <mxCell id="7-hZs9UUzoJmamspiq4g-81" value="購物車內商品不需要再支付" style="text;html=1;strokeColor=none;fillColor=none;align=center;verticalAlign=middle;whiteSpace=wrap;rounded=0;" parent="7-hZs9UUzoJmamspiq4g-39" vertex="1">
          <mxGeometry x="78" y="680" width="150" height="30" as="geometry" />
        </mxCell>
        <mxCell id="7-hZs9UUzoJmamspiq4g-84" value="&lt;br&gt;能不能選擇用&lt;br&gt;&amp;nbsp;cash voucher &lt;br&gt;來支付？" style="shape=card;whiteSpace=wrap;html=1;fillColor=#f5f5f5;fontColor=#333333;strokeColor=#666666;" parent="7-hZs9UUzoJmamspiq4g-39" vertex="1">
          <mxGeometry x="411" y="465" width="90" height="80" as="geometry" />
        </mxCell>
        <mxCell id="7-hZs9UUzoJmamspiq4g-85" value="" style="endArrow=none;dashed=1;html=1;dashPattern=1 3;strokeWidth=2;rounded=0;exitX=0;exitY=0;exitDx=0;exitDy=55;exitPerimeter=0;entryX=1;entryY=0;entryDx=0;entryDy=0;" parent="7-hZs9UUzoJmamspiq4g-39" source="7-hZs9UUzoJmamspiq4g-84" target="7-hZs9UUzoJmamspiq4g-70" edge="1">
          <mxGeometry width="50" height="50" relative="1" as="geometry">
            <mxPoint x="-49" y="610" as="sourcePoint" />
            <mxPoint x="31" y="695" as="targetPoint" />
          </mxGeometry>
        </mxCell>
        <mxCell id="7-hZs9UUzoJmamspiq4g-86" value="&lt;font style=&quot;font-size: 24px&quot;&gt;積分兌換作業&lt;/font&gt;" style="text;html=1;strokeColor=none;fillColor=none;align=center;verticalAlign=middle;whiteSpace=wrap;rounded=0;" parent="1" vertex="1">
          <mxGeometry x="640" y="30" width="171" height="30" as="geometry" />
        </mxCell>
      </root>
    </mxGraphModel>
  </diagram>
</mxfile>
